<svg width="16" height="17" viewBox="0 0 16 17" fill="none" xmlns="http://www.w3.org/2000/svg">
<g id="brl.svg" clip-path="url(#clip0_38_432)">
<g id="Group">
<path id="Vector" fill-rule="evenodd" clip-rule="evenodd" d="M0 0.719971H16V16.72H0V0.719971Z" fill="#229E45"/>
<path id="Vector_2" fill-rule="evenodd" clip-rule="evenodd" d="M8.16914 13.3888L15.3504 8.72627L8.12539 4.05127L0.916016 8.73877L8.16602 13.3888H8.16914Z" fill="#F8E509"/>
<path id="Vector_3" fill-rule="evenodd" clip-rule="evenodd" d="M11.2972 8.71999C11.3098 9.12688 11.2405 9.53216 11.0934 9.91174C10.9463 10.2913 10.7244 10.6375 10.4409 10.9296C10.1574 11.2217 9.81811 11.4539 9.44311 11.6123C9.06811 11.7707 8.66509 11.8522 8.25801 11.8517C7.85092 11.8513 7.44807 11.7691 7.0734 11.6099C6.69873 11.4507 6.35987 11.2178 6.07697 10.9251C5.79407 10.6324 5.57289 10.2858 5.42659 9.90591C5.28028 9.52603 5.21183 9.12061 5.2253 8.71374C5.25139 7.92544 5.58309 7.1782 6.15025 6.63007C6.7174 6.08194 7.47552 5.77592 8.26426 5.77674C9.05299 5.77755 9.81049 6.08513 10.3765 6.63442C10.9425 7.18371 11.2727 7.93164 11.2972 8.71999Z" fill="#2B49A3"/>
<path id="Vector_4" fill-rule="evenodd" clip-rule="evenodd" d="M7.25936 10.5387L7.16561 10.4825L7.06874 10.5325L7.09061 10.4231L7.01561 10.345L7.12186 10.3325L7.17186 10.2325L7.21874 10.3356L7.32499 10.3543L7.24374 10.4293M9.29686 11.0543L9.20311 10.9981L9.10311 11.0481L9.12499 10.9387L9.04999 10.8606L9.15936 10.8481L9.20936 10.7481L9.25311 10.8512L9.35936 10.87L9.28124 10.945M8.41874 10.2293L8.33749 10.1825L8.25311 10.2231L8.27186 10.1293L8.20936 10.0606L8.29999 10.0512L8.34374 9.96683L8.38124 10.0543L8.47499 10.07L8.40624 10.1325M10.475 9.93246L10.3937 9.88558L10.3125 9.92621L10.3312 9.83558L10.2687 9.76996L10.3594 9.75746L10.4 9.67621L10.4406 9.76058L10.5312 9.77621L10.4625 9.83871M8.38124 9.31683L8.28749 9.26058L8.19061 9.31058L8.21249 9.20121L8.13749 9.12308L8.24374 9.11058L8.29374 9.01371L8.34061 9.11371L8.44686 9.13246L8.36561 9.20746M5.87499 8.37621L5.78124 8.31996L5.68749 8.36996L5.70624 8.26058L5.63124 8.18246L5.74061 8.16996L5.79061 8.06996L5.83436 8.17308L5.94061 8.19183L5.86249 8.26683M6.17811 9.62621L6.08436 9.57308L5.98749 9.61996L6.00936 9.51371L5.93436 9.43246L6.04061 9.41996L6.09061 9.32621L6.13749 9.42308L6.24374 9.44496L6.16249 9.51683M9.30624 7.91371L9.22499 7.86683L9.13749 7.90746L9.15624 7.81371L9.09374 7.74183L9.18749 7.73246L9.23124 7.64496L9.27186 7.73558L9.36561 7.75121L9.29374 7.81683M9.13749 8.72933L9.06249 8.68871L8.99686 8.71996L9.00936 8.64496L8.95936 8.59183L9.03436 8.58246L9.06874 8.51371L9.09999 8.58558L9.17499 8.59808L9.11874 8.64808M5.73124 9.85121L5.66874 9.81371L5.60311 9.84496L5.61561 9.77308L5.56561 9.71996L5.64061 9.71371L5.67186 9.65121L5.70311 9.71371L5.77499 9.72933L5.72186 9.77933M10.4906 10.1387L10.4375 10.1137L10.3844 10.1356L10.3969 10.0825L10.3562 10.0418L10.4156 10.0356L10.4437 9.98871L10.4656 10.0387L10.525 10.0481L10.4812 10.0856" fill="#FFFFEF"/>
<path id="Vector_5" fill-rule="evenodd" clip-rule="evenodd" d="M5.73398 9.8543L5.67148 9.8168L5.60586 9.84805L5.62148 9.77617L5.56836 9.72305L5.64023 9.7168L5.67461 9.6543L5.70586 9.7168L5.77773 9.73242L5.72461 9.78242" fill="#FFFFEF"/>
<path id="Vector_6" fill-rule="evenodd" clip-rule="evenodd" d="M5.73398 9.8543L5.67148 9.8168L5.60586 9.84805L5.62148 9.77617L5.56836 9.72305L5.64023 9.7168L5.67461 9.6543L5.70586 9.7168L5.77773 9.73242L5.72461 9.78242M6.73086 9.8543L6.66836 9.8168L6.60586 9.84805L6.61836 9.77617L6.56836 9.72305L6.64023 9.7168L6.67148 9.65117L6.70273 9.7168L6.77461 9.73242L6.72148 9.78242M6.60586 10.1887L6.54336 10.1512L6.48086 10.1824L6.49336 10.1105L6.44336 10.0574L6.51523 10.048L6.54648 9.98555L6.57773 10.048L6.64961 10.0637L6.59648 10.1137M8.68086 9.58242L8.61836 9.54492L8.55273 9.57617L8.56523 9.5043L8.51523 9.45117L8.58711 9.44492L8.62148 9.3793L8.65273 9.44492L8.72148 9.45742L8.66836 9.50742M8.07148 9.58242L8.00898 9.54492L7.94336 9.57617L7.95898 9.5043L7.90898 9.45117L7.98086 9.44492L8.01211 9.3793L8.04336 9.44492L8.11523 9.45742L8.06211 9.50742M6.42148 9.36992L6.38398 9.34805L6.34336 9.3668L6.34961 9.31992L6.31836 9.28867L6.36523 9.28242L6.38711 9.2418L6.40273 9.28555L6.44961 9.2918L6.41836 9.32305M10.4121 10.4074L10.3496 10.373L10.284 10.4043L10.2996 10.3324L10.2496 10.2793L10.3215 10.2699L10.3527 10.2074L10.384 10.2699L10.4559 10.2855L10.4027 10.3355M9.90273 10.473L9.85273 10.4418L9.79961 10.473L9.81211 10.4105L9.76836 10.3668L9.83086 10.3605L9.85586 10.3074L9.88086 10.3605L9.94336 10.373L9.89648 10.4137M10.1465 10.4699L10.0965 10.4387L10.0465 10.4668L10.0559 10.4105L10.0184 10.3699L10.0746 10.3637L10.0996 10.3137L10.1215 10.3637L10.1777 10.373L10.1371 10.4137M10.8309 9.86992L10.784 9.8418L10.734 9.8668L10.7465 9.81367L10.709 9.77305L10.7621 9.7668L10.7871 9.71992L10.809 9.76992L10.8621 9.7793L10.8215 9.8168M9.90586 10.8105L9.84336 10.7762L9.78086 10.8074L9.79648 10.7387L9.74648 10.6918L9.81523 10.6824L9.84961 10.623L9.88086 10.6855L9.94648 10.698L9.89648 10.7418M9.90898 11.0824L9.85273 11.0512L9.79648 11.0793L9.80898 11.0105L9.76523 10.9637L9.82773 10.9543L9.85898 10.8949L9.88398 10.9574L9.94648 10.9699L9.89961 11.0137M9.44648 10.4699L9.39961 10.4418L9.34961 10.4668L9.36211 10.4105L9.32461 10.373L9.37773 10.3668L9.40273 10.3168L9.42461 10.3668L9.47773 10.3762L9.43711 10.4137M9.01523 10.4699L8.96836 10.4418L8.91836 10.4668L8.93086 10.4105L8.89336 10.373L8.94648 10.3668L8.97148 10.3168L8.99336 10.3668L9.04648 10.3762L9.00898 10.4137M8.28086 9.82617L8.23398 9.79805L8.18398 9.82305L8.19648 9.76992L8.15898 9.7293L8.21211 9.72305L8.23711 9.67617L8.25898 9.72617L8.31211 9.73555L8.27148 9.76992M8.36211 11.1293L8.32148 11.1074L8.28086 11.1293L8.29023 11.0824L8.25898 11.0512L8.30273 11.0418L8.32461 11.0012L8.34336 11.0449L8.39023 11.0512L8.35586 11.0824M7.25586 9.01992L7.16211 8.9668L7.06523 9.01367L7.08711 8.90742L7.01211 8.82617L7.11836 8.81367L7.16836 8.7168L7.21523 8.8168L7.32148 8.83555L7.24023 8.91055" fill="#FFFFEF"/>
<path id="Vector_7" fill-rule="evenodd" clip-rule="evenodd" d="M11.0969 9.81371C11.1557 9.66049 11.2017 9.50265 11.2344 9.34183C9.62186 7.92308 7.82186 7.19496 5.54686 7.34496C5.46536 7.50422 5.39842 7.67052 5.34686 7.84183C6.39054 7.73643 7.44467 7.85778 8.4371 8.19758C9.42953 8.53738 10.3368 9.0876 11.0969 9.81058V9.81371Z" fill="white"/>
<path id="Vector_8" d="M10.3719 9.01373L10.4281 9.04498C10.4194 9.06238 10.4171 9.08234 10.4219 9.10123C10.425 9.11373 10.4375 9.12936 10.4531 9.13873C10.4719 9.15123 10.4875 9.15748 10.5031 9.15748C10.5156 9.15748 10.5281 9.14811 10.5344 9.13873C10.5375 9.13248 10.5406 9.12623 10.5375 9.11686L10.5281 9.09186L10.4906 9.05123C10.4707 9.03097 10.4557 9.00637 10.4469 8.97936C10.4414 8.95903 10.4435 8.93741 10.4526 8.91847C10.4618 8.89953 10.4775 8.88453 10.4969 8.87623C10.5136 8.86885 10.5321 8.86667 10.55 8.86998C10.5726 8.8749 10.5939 8.88448 10.6125 8.89811C10.6396 8.91715 10.6612 8.94303 10.675 8.97311C10.6788 8.98694 10.6793 9.00146 10.6766 9.01555C10.6739 9.02964 10.668 9.04291 10.6594 9.05436L10.6031 9.01998C10.6094 9.00436 10.6125 8.98873 10.6094 8.97623C10.6062 8.96686 10.5938 8.95436 10.5781 8.94498C10.5625 8.93248 10.5469 8.92936 10.5344 8.92936C10.5308 8.92947 10.5272 8.93037 10.524 8.93199C10.5207 8.9336 10.5179 8.93591 10.5156 8.93873C10.5135 8.9419 10.5121 8.94551 10.5115 8.94931C10.511 8.9531 10.5113 8.95697 10.5125 8.96061C10.5125 8.97311 10.5281 8.99186 10.55 9.01373L10.5969 9.07623C10.6054 9.09179 10.6093 9.10944 10.6082 9.12714C10.6071 9.14484 10.601 9.16186 10.5906 9.17623C10.5797 9.19172 10.5645 9.20367 10.5469 9.21061C10.5283 9.21911 10.5074 9.2213 10.4875 9.21686C10.4638 9.21082 10.4415 9.20021 10.4219 9.18561C10.3924 9.16789 10.3702 9.14017 10.3594 9.10748C10.35 9.07936 10.3531 9.04811 10.3719 9.01373ZM10.0969 8.83561L10.1594 8.86686C10.152 8.88244 10.1499 8.89995 10.1531 8.91686C10.1562 8.93248 10.1687 8.94811 10.1844 8.95748C10.2031 8.96998 10.2188 8.97311 10.2344 8.96998C10.2469 8.96998 10.2594 8.96373 10.2656 8.95123C10.2686 8.94546 10.2697 8.93891 10.2688 8.93248C10.2688 8.92311 10.2656 8.91686 10.2563 8.90748L10.2188 8.86686C10.1982 8.84774 10.1822 8.82425 10.1719 8.79811C10.1677 8.7857 10.1664 8.77252 10.168 8.75954C10.1697 8.74656 10.1742 8.73411 10.1812 8.72311C10.1905 8.70935 10.2035 8.69851 10.2188 8.69186C10.2355 8.68466 10.2539 8.68249 10.2719 8.68561C10.2906 8.68561 10.3094 8.69498 10.3344 8.71061C10.3656 8.73248 10.3906 8.75436 10.3969 8.78248C10.4016 8.79585 10.4031 8.81011 10.4015 8.82418C10.3999 8.83826 10.3951 8.85178 10.3875 8.86373L10.3281 8.82936C10.3375 8.81373 10.3375 8.79811 10.3344 8.78873C10.3281 8.77623 10.3188 8.76686 10.3031 8.75748C10.2897 8.74713 10.2732 8.74162 10.2563 8.74186C10.2524 8.74233 10.2486 8.7437 10.2454 8.74588C10.2421 8.74805 10.2394 8.75095 10.2375 8.75436C10.2358 8.75777 10.235 8.76151 10.235 8.7653C10.235 8.76909 10.2358 8.77282 10.2375 8.77623C10.2375 8.78561 10.2531 8.80436 10.275 8.82936C10.3 8.85123 10.3156 8.87311 10.325 8.88561C10.3346 8.90122 10.3395 8.91931 10.3389 8.93764C10.3383 8.95597 10.3324 8.97373 10.3219 8.98873C10.3112 9.00493 10.2961 9.01769 10.2784 9.02546C10.2606 9.03322 10.241 9.03566 10.2219 9.03248C10.1973 9.02771 10.174 9.01815 10.1531 9.00436C10.1232 8.98777 10.1 8.96124 10.0875 8.92936C10.0786 8.89805 10.082 8.86453 10.0969 8.83561ZM9.75937 8.74186L9.93437 8.46061L10.1438 8.58561L10.1125 8.63561L9.9625 8.54186L9.92188 8.60436L10.0656 8.69186L10.0344 8.74186L9.89375 8.65436L9.84688 8.73248L10.0031 8.82623L9.975 8.87623L9.75937 8.74498V8.74186ZM9.26562 8.33873L9.29375 8.28873L9.41875 8.35748L9.35938 8.47311C9.30871 8.48434 9.25572 8.47772 9.20938 8.45436C9.18142 8.43985 9.15772 8.41831 9.14062 8.39186C9.12411 8.368 9.11538 8.33962 9.11563 8.31061C9.11563 8.27936 9.125 8.25123 9.14062 8.22311C9.15504 8.19425 9.17655 8.16952 9.20312 8.15123C9.225 8.13248 9.25625 8.12311 9.2875 8.12311C9.30938 8.12311 9.3375 8.13248 9.36563 8.14498C9.39643 8.15946 9.42167 8.1836 9.4375 8.21373C9.45 8.23873 9.45312 8.26686 9.44687 8.29811L9.38125 8.27936C9.38478 8.26349 9.38256 8.24688 9.375 8.23248C9.36669 8.21716 9.35348 8.20506 9.3375 8.19811C9.32641 8.19124 9.31397 8.18685 9.30102 8.18523C9.28808 8.18361 9.27494 8.18481 9.2625 8.18873C9.24062 8.19811 9.21875 8.21998 9.2 8.25123C9.18477 8.27996 9.17928 8.31287 9.18437 8.34498C9.19062 8.36998 9.20625 8.38873 9.23438 8.40123L9.275 8.41373H9.31563L9.33438 8.37623L9.26562 8.33873ZM7.11562 7.80748L7.16563 7.47623L7.26562 7.49186L7.29063 7.72623L7.38438 7.50748L7.48125 7.52311L7.43437 7.85436L7.37187 7.84498L7.40938 7.58561L7.30625 7.83561L7.24375 7.82623L7.21562 7.55436L7.17812 7.81686L7.11562 7.80748ZM6.78125 7.76686L6.8125 7.43561L7.05625 7.45748L7.05312 7.51373L6.87187 7.49811L6.86562 7.56998L7.03125 7.58561L7.02812 7.64186L6.8625 7.62623L6.85313 7.71998L7.0375 7.73561L7.03125 7.79186L6.78125 7.76686Z" fill="#309E3A"/>
<g id="Group_2">
<path id="Vector_9" d="M5.66909 7.55752C5.66909 7.52627 5.67534 7.49502 5.68471 7.47315L5.71596 7.4294L5.76284 7.39815C5.78592 7.39021 5.81037 7.38702 5.83472 7.38877C5.8564 7.38862 5.87788 7.39299 5.89779 7.4016C5.9177 7.41021 5.93559 7.42287 5.95034 7.43877C5.98159 7.47002 5.99097 7.51065 5.99097 7.56377C5.99097 7.62002 5.97222 7.66065 5.94409 7.68877C5.92844 7.70394 5.90979 7.71567 5.88934 7.72321C5.86889 7.73074 5.84709 7.73391 5.82534 7.73252C5.80388 7.73307 5.78254 7.72919 5.76265 7.72112C5.74275 7.71306 5.72473 7.70098 5.70972 7.68565C5.69427 7.66901 5.68264 7.64921 5.67562 7.62762C5.6686 7.60604 5.66638 7.58318 5.66909 7.56065V7.55752Z" fill="#309E3A"/>
<path id="Vector_10" d="M5.7375 7.55757C5.7375 7.59507 5.74375 7.62632 5.7625 7.64507C5.77812 7.66694 5.8 7.67632 5.825 7.67632C5.83777 7.67656 5.85046 7.67419 5.86228 7.66936C5.8741 7.66452 5.88481 7.65732 5.89375 7.64819C5.90938 7.62944 5.91875 7.60132 5.92188 7.56382C5.92188 7.52319 5.91562 7.49507 5.89687 7.47632C5.88929 7.46695 5.87979 7.45931 5.86901 7.45392C5.85823 7.44853 5.84642 7.44551 5.83437 7.44507C5.80312 7.44507 5.78125 7.45444 5.76562 7.47319C5.74687 7.49194 5.7375 7.52007 5.73438 7.55757H5.7375Z" fill="#F7FFFF"/>
</g>
<g id="Group_3">
<path id="Vector_11" d="M6.0625 7.73245L6.06563 7.39807H6.20625C6.24375 7.39807 6.26875 7.40432 6.28438 7.41057C6.3 7.41682 6.31563 7.4262 6.32188 7.44182C6.32813 7.45745 6.3375 7.47307 6.3375 7.49495C6.3375 7.51995 6.32813 7.5387 6.31563 7.55745C6.3 7.57307 6.27812 7.58245 6.24687 7.5887C6.2625 7.59495 6.275 7.60432 6.28438 7.6137L6.32188 7.66995L6.3625 7.73245H6.28125L6.23438 7.66057C6.22293 7.64314 6.21041 7.62644 6.19688 7.61057C6.19166 7.60503 6.18524 7.60076 6.17812 7.59807C6.16807 7.59447 6.15754 7.59237 6.14687 7.59182H6.13125V7.73245H6.0625Z" fill="#309E3A"/>
<path id="Vector_12" d="M6.13086 7.53865H6.18086C6.20161 7.54123 6.22261 7.54123 6.24336 7.53865L6.25898 7.52302C6.26523 7.51677 6.26836 7.5074 6.26836 7.49802C6.26836 7.48552 6.26523 7.47615 6.25898 7.4699C6.25239 7.4629 6.24353 7.45848 6.23398 7.4574H6.13398V7.53865H6.13086Z" fill="white"/>
</g>
<g id="Group_4">
<path id="Vector_13" d="M6.44374 7.4137L6.56561 7.41995C6.58677 7.42027 6.60779 7.42343 6.62811 7.42932C6.64591 7.43604 6.66194 7.44672 6.67499 7.46057C6.68958 7.47787 6.70024 7.49813 6.70624 7.51995C6.71249 7.54182 6.71249 7.56682 6.71249 7.59807C6.71342 7.622 6.70915 7.64584 6.69998 7.66796C6.69081 7.69008 6.67695 7.70995 6.65936 7.7262C6.64686 7.73557 6.63124 7.74495 6.61249 7.7512H6.54999L6.42499 7.74807L6.44374 7.4137Z" fill="#309E3A"/>
<path id="Vector_14" d="M6.50663 7.47302L6.49725 7.69177L6.54725 7.69802H6.58788L6.616 7.6824C6.62538 7.67615 6.6285 7.66677 6.63475 7.65115L6.64413 7.58865L6.641 7.5324C6.63475 7.51677 6.63163 7.5074 6.62225 7.50115C6.61393 7.49193 6.60305 7.4854 6.591 7.4824C6.57352 7.47874 6.55574 7.47664 6.53788 7.47615H6.50663V7.47302Z" fill="white"/>
</g>
<g id="Group_5">
<path id="Vector_15" d="M8.07812 8.01061L8.15625 7.68561L8.25937 7.71061C8.3 7.71998 8.325 7.72936 8.3375 7.73561C8.35312 7.74498 8.36875 7.75748 8.375 7.77623C8.38438 7.79811 8.38438 7.81998 8.37813 7.84498C8.37536 7.8611 8.36842 7.87622 8.35801 7.88882C8.34759 7.90143 8.33406 7.9111 8.31875 7.91686C8.308 7.92215 8.29633 7.92533 8.28438 7.92623C8.26112 7.92422 8.2381 7.92003 8.21562 7.91373L8.17188 7.90436L8.14062 8.02623L8.07812 8.01061Z" fill="#309E3A"/>
<path id="Vector_16" d="M8.20626 7.75751L8.18439 7.85126L8.22189 7.85751C8.24689 7.86376 8.26564 7.86688 8.27501 7.86376C8.28366 7.86286 8.29185 7.85941 8.29853 7.85385C8.3052 7.84828 8.31007 7.84085 8.31251 7.83251L8.30939 7.79813C8.304 7.78803 8.29511 7.78025 8.28439 7.77626L8.23751 7.76376L8.20626 7.75751Z" fill="white"/>
</g>
<g id="Group_6">
<path id="Vector_17" d="M8.38751 8.10432L8.49689 7.7887L8.63126 7.83557C8.65563 7.84245 8.67881 7.85298 8.70001 7.86682C8.71251 7.87932 8.72189 7.89495 8.72814 7.9137C8.73439 7.93245 8.72814 7.94807 8.72189 7.96682C8.71564 7.99182 8.70001 8.00745 8.68126 8.01682C8.6705 8.02308 8.65861 8.02713 8.64627 8.02874C8.63393 8.03035 8.62139 8.02948 8.60939 8.0262L8.63439 8.0637L8.65314 8.1262L8.66876 8.2012L8.59376 8.1762L8.57189 8.09182C8.56701 8.07162 8.56074 8.05178 8.55314 8.03245C8.55045 8.02533 8.54618 8.01891 8.54064 8.0137C8.53115 8.0068 8.52059 8.00152 8.50939 7.99807L8.49689 7.99495L8.45001 8.1262L8.38751 8.10432Z" fill="#309E3A"/>
<path id="Vector_18" d="M8.51251 7.94496L8.55939 7.96058L8.61876 7.97621C8.62814 7.97621 8.63439 7.97621 8.64064 7.96996L8.65626 7.94808V7.91683C8.65229 7.90866 8.64568 7.90206 8.63751 7.89808L8.59064 7.88246L8.54064 7.86371L8.51251 7.94496Z" fill="white"/>
</g>
<g id="Group_7">
<path id="Vector_19" d="M8.77811 8.09187C8.78605 8.06328 8.79989 8.03666 8.81874 8.01374C8.82811 7.99812 8.84374 7.98875 8.85936 7.97937C8.87481 7.97085 8.89182 7.96554 8.90936 7.96375C8.93124 7.96375 8.95624 7.96375 8.98124 7.97312C9.00244 7.97842 9.0223 7.98812 9.03953 8.00157C9.05675 8.01503 9.07096 8.03195 9.08124 8.05125C9.09999 8.08875 9.10311 8.13562 9.08436 8.18562C9.07919 8.2081 9.06963 8.22934 9.05622 8.24811C9.04281 8.26688 9.02583 8.28281 9.00624 8.29499C8.98696 8.3046 8.9659 8.31011 8.94439 8.31118C8.92288 8.31226 8.90138 8.30887 8.88124 8.30125C8.86003 8.29594 8.84018 8.28625 8.82295 8.27279C8.80573 8.25933 8.79151 8.24241 8.78124 8.22312C8.76287 8.18151 8.76175 8.13431 8.77811 8.09187Z" fill="#309E3A"/>
<path id="Vector_20" d="M8.84376 8.1106C8.83439 8.14498 8.83439 8.1731 8.84376 8.1981C8.85626 8.2231 8.87501 8.23873 8.90001 8.2481C8.92501 8.25435 8.94689 8.25123 8.96876 8.23873C8.99064 8.22623 9.00939 8.20123 9.02189 8.16373C9.03126 8.12623 9.03126 8.0981 9.02189 8.0731C9.01664 8.06157 9.00885 8.05136 8.99911 8.04325C8.98937 8.03513 8.97793 8.02931 8.96564 8.02623C8.95371 8.02235 8.94108 8.02118 8.92864 8.0228C8.91621 8.02443 8.90429 8.0288 8.89376 8.0356C8.87189 8.0481 8.85626 8.0731 8.84376 8.1106Z" fill="white"/>
</g>
<g id="Group_8">
<path id="Vector_21" d="M9.42773 8.5575L9.58086 8.26062L9.70586 8.32312C9.73711 8.34187 9.75898 8.35437 9.76836 8.36687C9.78086 8.38249 9.78711 8.39812 9.79023 8.41374C9.79336 8.42937 9.79023 8.45124 9.77773 8.46687C9.76836 8.48874 9.75273 8.50437 9.73086 8.51374C9.70898 8.51999 9.68711 8.52 9.65898 8.51062C9.66836 8.52312 9.67461 8.53875 9.67773 8.55125L9.68711 8.61687L9.69336 8.69499L9.62148 8.6575L9.61211 8.56999L9.60273 8.50749C9.60005 8.50038 9.59577 8.49396 9.59023 8.48875C9.58189 8.48108 9.5724 8.47475 9.56211 8.47L9.54961 8.46375L9.48711 8.58875L9.42773 8.5575Z" fill="#309E3A"/>
<path id="Vector_22" d="M9.57422 8.41692L9.61797 8.43879L9.67422 8.46379C9.68359 8.46379 9.68984 8.46379 9.69609 8.45754C9.70451 8.45318 9.71141 8.44636 9.71588 8.43799C9.72034 8.42962 9.72216 8.42009 9.72109 8.41067C9.71773 8.40133 9.71106 8.39355 9.70234 8.38879C9.68911 8.37997 9.67556 8.37163 9.66172 8.36379L9.61484 8.34192L9.57422 8.41692Z" fill="white"/>
</g>
<g id="Group_9">
<path id="Vector_23" d="M10.6625 9.16686C10.6813 9.13561 10.7 9.11686 10.725 9.10436C10.7403 9.09419 10.7572 9.08678 10.775 9.08248C10.7915 9.07928 10.8085 9.07928 10.825 9.08248C10.8469 9.08561 10.8719 9.09498 10.8938 9.11373C10.9122 9.12501 10.9282 9.14 10.9405 9.15775C10.9529 9.1755 10.9615 9.19563 10.9656 9.21686C10.9702 9.26233 10.958 9.30789 10.9313 9.34498C10.9194 9.36515 10.9036 9.38273 10.8848 9.39669C10.866 9.41064 10.8446 9.42069 10.8219 9.42623C10.8007 9.43019 10.779 9.42973 10.758 9.42489C10.737 9.42006 10.7173 9.41094 10.7 9.39811C10.6816 9.38683 10.6656 9.37184 10.6533 9.35409C10.6409 9.33634 10.6323 9.31621 10.6281 9.29498C10.6247 9.27262 10.6256 9.24979 10.631 9.2278C10.6364 9.20581 10.646 9.1851 10.6594 9.16686H10.6625Z" fill="#309E3A"/>
<path id="Vector_24" d="M10.7191 9.20122C10.7003 9.23247 10.6909 9.26372 10.6941 9.28872C10.6962 9.30137 10.7009 9.31343 10.7079 9.32418C10.7149 9.33493 10.724 9.34414 10.7347 9.35122C10.7446 9.3581 10.7559 9.36277 10.7677 9.36493C10.7796 9.36708 10.7918 9.36667 10.8034 9.36372C10.8284 9.35747 10.8534 9.33872 10.8753 9.30435C10.8972 9.2731 10.9066 9.24497 10.9003 9.21997C10.9003 9.19497 10.8847 9.17622 10.8628 9.15747C10.8409 9.13872 10.8159 9.13872 10.7909 9.14497C10.7659 9.15122 10.7441 9.16997 10.7222 9.20122H10.7191Z" fill="white"/>
</g>
<path id="Vector_25" d="M7.70001 7.87623L7.75314 7.63873L7.92814 7.67936L7.91876 7.71998L7.79376 7.68873L7.78126 7.74186L7.89689 7.76998L7.88751 7.81061L7.77189 7.77936L7.75626 7.84498L7.88751 7.87623L7.87814 7.91686L7.70001 7.87623Z" fill="#309E3A"/>
</g>
</g>
<defs>
<clipPath id="clip0_38_432">
<rect width="16" height="16" fill="white" transform="translate(0 0.719971)"/>
</clipPath>
</defs>
</svg>
