<svg width="120" height="21" viewBox="0 0 120 21" fill="none" xmlns="http://www.w3.org/2000/svg">
<g id="chartPlus.svg" clip-path="url(#clip0_38_372)">
<path id="Vector" d="M119.46 11.407L110.933 10.1894L101.737 7.54281C101.642 7.51535 101.54 7.51767 101.446 7.54957L88.8172 11.8272C88.7464 11.8511 88.6713 11.8585 88.5972 11.8489L81.9156 10.9754C81.7934 10.9593 81.6691 10.9904 81.5686 11.0624L76.761 14.5063C76.6318 14.5988 76.4653 14.6225 76.3156 14.5699L67.5134 11.481C67.3794 11.4341 67.2318 11.4477 67.1086 11.5186L58.5043 16.4754C58.3383 16.571 58.1318 16.5605 57.9761 16.4485L50.6319 11.1605C50.4584 11.0356 50.2237 11.0384 50.0532 11.1673L45.9381 14.2785C45.6857 14.4694 45.3211 14.3728 45.1964 14.082L41.1558 4.66606C41.1118 4.56342 41.0338 4.47902 40.935 4.42699L35.1552 1.38459C35.0084 1.30729 34.8323 1.31003 34.6879 1.39187L28.3504 4.98427C28.2574 5.03693 28.1844 5.11866 28.1425 5.21688L24.2726 14.2801C24.1086 14.6644 23.5687 14.6776 23.3861 14.3018L19.1192 5.52308C18.9605 5.19673 18.5137 5.15196 18.2934 5.44035L8.11025 18.7758C7.88674 19.0685 7.43177 19.017 7.27928 18.6818L2.6889 8.58946C2.53718 8.25589 2.0854 8.20276 1.86048 8.49211L0.541016 10.1894" stroke="#47B359" stroke-width="0.73106"/>
<path id="Vector_2" opacity="0.15" d="M110.933 10.1894L119.042 11.3472C119.282 11.3815 119.46 11.5872 119.46 11.8297V20.2326C119.46 20.5018 119.242 20.72 118.972 20.72H1.02838C0.759216 20.72 0.541016 20.5018 0.541016 20.2326V10.3566C0.541016 10.2482 0.577108 10.143 0.643605 10.0575L1.86048 8.49211C2.08539 8.20281 2.53717 8.25589 2.6889 8.58946L7.27929 18.6818C7.43177 19.017 7.88675 19.0685 8.11026 18.7758L18.2934 5.44035C18.5137 5.15196 18.9605 5.19673 19.1192 5.52308L23.3861 14.3018C23.5687 14.6776 24.1086 14.6644 24.2726 14.2801L28.1425 5.21688C28.1844 5.11866 28.2574 5.03693 28.3504 4.98427L34.6879 1.39187C34.8323 1.31003 35.0084 1.30729 35.1552 1.38459L40.935 4.42699C41.0338 4.47902 41.1118 4.56342 41.1558 4.66606L45.1964 14.082C45.3211 14.3728 45.6857 14.4694 45.9382 14.2785L50.0532 11.1673C50.2237 11.0384 50.4584 11.0356 50.6319 11.1605L57.9762 16.4485C58.1318 16.5605 58.3383 16.571 58.5043 16.4754L67.1086 11.5186C67.2318 11.4477 67.3794 11.4341 67.5135 11.481L76.3156 14.5699C76.4653 14.6225 76.6318 14.5988 76.761 14.5063L81.5686 11.0624C81.6691 10.9904 81.7935 10.9593 81.9156 10.9754L88.5972 11.8489C88.6713 11.8586 88.7464 11.8512 88.8172 11.8272L101.446 7.54957C101.54 7.51767 101.642 7.51535 101.737 7.54281L110.933 10.1894Z" fill="url(#paint0_linear_38_372)"/>
</g>
<defs>
<linearGradient id="paint0_linear_38_372" x1="60.0005" y1="1.26054" x2="60.0005" y2="20.72" gradientUnits="userSpaceOnUse">
<stop stop-color="#47B259"/>
<stop offset="1" stop-color="#47B259" stop-opacity="0"/>
</linearGradient>
<clipPath id="clip0_38_372">
<rect width="120" height="20" fill="white" transform="translate(0 0.719971)"/>
</clipPath>
</defs>
</svg>
