<svg width="120" height="21" viewBox="0 0 120 21" fill="none" xmlns="http://www.w3.org/2000/svg">
<g id="chartMinus.svg" clip-path="url(#clip0_38_332)">
<path id="Vector" d="M0.541016 11.407L9.06761 10.1894L18.264 7.54281C18.3594 7.51535 18.461 7.51767 18.5551 7.54957L31.1839 11.8272C31.2545 11.8511 31.3296 11.8585 31.4035 11.8489L38.0851 10.9754C38.2076 10.9593 38.3317 10.9904 38.4321 11.0624L43.2401 14.5063C43.3693 14.5988 43.5354 14.6225 43.6853 14.5699L52.4875 11.481C52.6214 11.4341 52.7692 11.4477 52.8922 11.5186L61.4967 16.4754C61.6626 16.571 61.8691 16.5605 62.0248 16.4485L69.3691 11.1605C69.5426 11.0356 69.7772 11.0384 69.948 11.1673L74.0626 14.2785C74.3151 14.4694 74.6799 14.3728 74.8048 14.082L78.8453 4.66606C78.8891 4.56342 78.967 4.47902 79.0659 4.42699L84.8459 1.38459C84.9924 1.30729 85.1686 1.31003 85.3129 1.39187L91.6507 4.98427C91.7437 5.03693 91.8167 5.11866 91.8583 5.21688L95.728 14.2801C95.8924 14.6644 96.4324 14.6776 96.6151 14.3018L100.882 5.52308C101.04 5.19673 101.488 5.15196 101.708 5.44035L111.891 18.7758C112.114 19.0685 112.569 19.017 112.722 18.6818L117.312 8.58946C117.464 8.25589 117.916 8.20276 118.14 8.49211L119.46 10.1894" stroke="#FF4D4D" stroke-width="0.73106"/>
<path id="Vector_2" opacity="0.15" d="M9.06761 10.1894L0.959491 11.3472C0.719378 11.3815 0.541016 11.5872 0.541016 11.8297V20.2326C0.541016 20.5018 0.759221 20.72 1.02839 20.72H118.972C119.242 20.72 119.46 20.5018 119.46 20.2326V10.3566C119.46 10.2482 119.424 10.143 119.357 10.0575L118.14 8.49211C117.916 8.20281 117.464 8.25589 117.312 8.58946L112.722 18.6818C112.569 19.017 112.114 19.0685 111.891 18.7758L101.708 5.44035C101.488 5.15196 101.04 5.19673 100.882 5.52308L96.6151 14.3018C96.4324 14.6776 95.8924 14.6644 95.728 14.2801L91.8583 5.21688C91.8167 5.11866 91.7437 5.03693 91.6507 4.98427L85.3129 1.39187C85.1686 1.31003 84.9924 1.30729 84.8459 1.38459L79.0659 4.42699C78.967 4.47902 78.8891 4.56342 78.8453 4.66606L74.8048 14.082C74.6799 14.3728 74.3151 14.4694 74.0626 14.2785L69.948 11.1673C69.7772 11.0384 69.5426 11.0356 69.3691 11.1605L62.0248 16.4485C61.8691 16.5605 61.6626 16.571 61.4967 16.4754L52.8922 11.5186C52.7692 11.4477 52.6214 11.4341 52.4875 11.481L43.6853 14.5699C43.5354 14.6225 43.3693 14.5988 43.2402 14.5063L38.4321 11.0624C38.3317 10.9904 38.2076 10.9593 38.0851 10.9754L31.4035 11.8489C31.3296 11.8586 31.2545 11.8512 31.184 11.8272L18.5551 7.54957C18.461 7.51767 18.3594 7.51535 18.264 7.54281L9.06761 10.1894Z" fill="url(#paint0_linear_38_332)"/>
</g>
<defs>
<linearGradient id="paint0_linear_38_332" x1="60.0005" y1="1.26054" x2="60.0005" y2="20.72" gradientUnits="userSpaceOnUse">
<stop stop-color="#FF4D4D"/>
<stop offset="1" stop-color="#FF4D4D" stop-opacity="0"/>
</linearGradient>
<clipPath id="clip0_38_332">
<rect width="120" height="20" fill="white" transform="translate(0 0.719971)"/>
</clipPath>
</defs>
</svg>
