<svg width="16" height="17" viewBox="0 0 16 17" fill="none" xmlns="http://www.w3.org/2000/svg">
<g id="eur.svg" clip-path="url(#clip0_38_385)">
<path id="Vector" d="M0 0.719971H16V16.72H0V0.719971Z" fill="#0052B4"/>
<path id="Vector_2" d="M7.99964 3.8512L8.25897 4.64807H9.09337L8.41524 5.1387L8.67464 5.9387L7.99651 5.44494L7.31837 5.9387L7.57771 5.1387L6.89964 4.64807H7.73711L7.99964 3.8512ZM4.55586 5.2762L5.30586 5.65744L5.89649 5.0637L5.76523 5.89182L6.51211 6.27307L5.68399 6.40432L5.55273 7.23244L5.17149 6.48244L4.34336 6.61682L4.93711 6.02307L4.55586 5.2762ZM3.13086 8.71997L3.92773 8.46057V7.62617L4.41836 8.3043L5.21836 8.04497L4.72461 8.7231L5.21836 9.40117L4.41836 9.14184L3.92773 9.81997V8.98244L3.13086 8.71997ZM4.55586 12.1637L4.93711 11.4137L4.34336 10.8231L5.17149 10.9543L5.55273 10.2074L5.68399 11.0356L6.51211 11.1668L5.76211 11.5481L5.89649 12.3762L5.30273 11.7824L4.55586 12.1637ZM7.99964 13.5887L7.74024 12.7918H6.90584L7.58397 12.3012L7.32464 11.5012L8.00271 11.995L8.68084 11.5012L8.42151 12.3012L9.09964 12.7918H8.26211L7.99964 13.5887ZM11.4434 12.1637L10.6934 11.7824L10.1027 12.3762L10.234 11.5481L9.48711 11.1668L10.3152 11.0356L10.4465 10.2074L10.8277 10.9574L11.6558 10.8231L11.0621 11.4168L11.4434 12.1637ZM12.8684 8.71997L12.0715 8.9793V9.8137L11.5808 9.13557L10.7808 9.39497L11.2746 8.71684L10.7808 8.0387L11.5808 8.2981L12.0715 7.61997V8.45744L12.8684 8.71997ZM11.4434 5.2762L11.0621 6.0262L11.6558 6.61682L10.8277 6.48557L10.4465 7.23244L10.3152 6.40432L9.48711 6.27307L10.2371 5.89182L10.1027 5.0637L10.6965 5.65744L11.4434 5.2762Z" fill="#FFDA44"/>
</g>
<defs>
<clipPath id="clip0_38_385">
<rect width="16" height="16" fill="white" transform="translate(0 0.719971)"/>
</clipPath>
</defs>
</svg>
