<svg width="48" height="40" viewBox="0 0 48 40" fill="none" xmlns="http://www.w3.org/2000/svg">
<g id="Group 5">
<g id="Group 2403">
<g id="XMLID_10_">
<g id="Group">
<path id="Vector" d="M47.8666 29.8698C47.8666 27.0689 47.0278 24.3643 45.4407 22.0485C44.2992 20.3828 42.8292 18.9995 41.1257 17.9716C43.1313 16.0722 44.3862 13.3877 44.3862 10.414C44.3862 4.67175 39.7145 0 33.9724 0C30.5675 0 27.3779 1.68396 25.4405 4.44827C24.9482 4.37656 24.4453 4.33788 23.9333 4.33788C23.4213 4.33788 22.9185 4.37669 22.4261 4.44827C20.4886 1.68396 17.2991 0 13.8943 0C8.1521 0 3.48036 4.67175 3.48036 10.414C3.48036 13.3877 4.73523 16.0722 6.74097 17.9716C5.03735 18.9994 3.56736 20.3828 2.42596 22.0483C0.838894 24.3643 0 27.0689 0 29.8698V35.6622H10.0391V40H37.8277V35.6622H47.8667V29.8698H47.8666ZM33.9724 2.57027C38.2974 2.57027 41.8161 6.08892 41.8161 10.4141C41.8161 14.7392 38.2974 18.2579 33.9724 18.2579C33.8949 18.2579 33.8174 18.2567 33.7398 18.2544C33.7457 18.238 33.7506 18.2211 33.7564 18.2047C33.8903 17.8251 34.0019 17.4352 34.0915 17.0369C34.0978 17.0087 34.105 16.9807 34.111 16.9523C34.1343 16.8448 34.1547 16.7364 34.1746 16.6277C34.184 16.5762 34.1937 16.525 34.2023 16.4734C34.2185 16.3764 34.2331 16.279 34.2466 16.1812C34.256 16.1132 34.2645 16.0453 34.2726 15.9772C34.2827 15.8908 34.2926 15.8043 34.3007 15.7173C34.3089 15.6285 34.3151 15.5396 34.321 15.4505C34.3256 15.3804 34.3314 15.3105 34.3346 15.2399C34.3417 15.0887 34.3457 14.9371 34.3462 14.7855C34.3462 14.7743 34.3471 14.7634 34.3471 14.7521C34.3471 14.7461 34.3466 14.74 34.3466 14.734C34.3463 14.5791 34.3418 14.4252 34.3349 14.2717C34.3328 14.2271 34.3301 14.1827 34.3276 14.1382C34.32 14.0078 34.3101 13.878 34.2979 13.7488C34.2951 13.7195 34.2927 13.6902 34.2898 13.6611C33.9014 9.90751 31.5301 6.6947 28.1092 5.20865C29.5833 3.55258 31.7155 2.57027 33.9724 2.57027ZM21.2193 7.39211C21.2444 7.38299 21.2697 7.37438 21.2948 7.36538C21.3728 7.33749 21.4514 7.31102 21.5305 7.28545C21.5903 7.2663 21.6506 7.2478 21.7113 7.23006C21.7553 7.21708 21.7995 7.20462 21.8439 7.19228C21.923 7.17056 22.0026 7.14936 22.0829 7.12996C22.6766 6.98577 23.2958 6.90751 23.933 6.90751C24.5708 6.90802 25.1902 6.98641 25.784 7.1306C25.8638 7.14987 25.9429 7.17095 26.0216 7.19254C26.0666 7.205 26.1116 7.2176 26.1562 7.23083C26.2161 7.24844 26.2757 7.26669 26.3349 7.28558C26.415 7.31141 26.4946 7.33814 26.5735 7.36641C26.5977 7.37502 26.622 7.38324 26.6462 7.39211C29.2694 8.36221 31.2362 10.6968 31.6814 13.53C31.6848 13.5526 31.6882 13.5754 31.6915 13.5981C31.7058 13.6941 31.7177 13.7909 31.7284 13.8879C31.7322 13.9236 31.7364 13.9592 31.7398 13.9951C31.7483 14.0836 31.7546 14.1728 31.7603 14.2622C31.7626 14.3005 31.7658 14.3387 31.7676 14.3771C31.773 14.4914 31.7759 14.6062 31.7763 14.7218C31.7763 14.7318 31.777 14.7416 31.777 14.7516C31.777 14.7562 31.7767 14.761 31.7767 14.7656C31.7764 14.8774 31.7731 14.9884 31.7682 15.0991C31.7667 15.1339 31.7651 15.1687 31.7631 15.2034C31.757 15.3103 31.7491 15.4167 31.7388 15.5224C31.7348 15.5632 31.7294 15.604 31.7248 15.6447C31.7169 15.7131 31.7082 15.7813 31.6987 15.8492C31.6912 15.902 31.6838 15.9549 31.6753 16.0075C31.6623 16.0875 31.6479 16.1671 31.6325 16.2464C31.6188 16.3169 31.6037 16.3872 31.5881 16.4574C31.5787 16.4997 31.5689 16.5419 31.5588 16.584C31.5337 16.6882 31.5062 16.7918 31.4769 16.8949C31.4652 16.9359 31.4543 16.9772 31.4419 17.0178C31.4241 17.0769 31.4048 17.1355 31.3857 17.1941C31.3702 17.241 31.3544 17.2877 31.3381 17.3342C31.3196 17.387 31.3014 17.4399 31.2818 17.4924C31.2485 17.5814 31.2136 17.6697 31.1772 17.7572C31.161 17.7963 31.1438 17.835 31.127 17.8739C31.0952 17.9468 31.0626 18.0193 31.0287 18.091C31.0247 18.0994 31.0207 18.1079 31.0167 18.1164C31.0045 18.1419 30.9924 18.1674 30.98 18.1929C30.9419 18.2705 30.9023 18.3472 30.8617 18.4233C30.8459 18.4528 30.8306 18.4828 30.8144 18.5122C30.8134 18.5141 30.8124 18.5159 30.8114 18.5177C30.7669 18.5987 30.7205 18.6784 30.6733 18.7575C30.6546 18.7889 30.6361 18.8204 30.6169 18.8513C30.5655 18.9347 30.5127 19.0172 30.4584 19.0985C30.4246 19.149 30.3892 19.1984 30.3543 19.2482C30.3246 19.2903 30.295 19.3326 30.2646 19.3741C30.2251 19.4278 30.1849 19.4809 30.144 19.5337C30.1163 19.5696 30.0883 19.6052 30.06 19.6406C30.0168 19.6946 29.9732 19.7483 29.9288 19.8011C29.9011 19.8339 29.8727 19.866 29.8446 19.8983C29.7983 19.9514 29.7522 20.0046 29.7047 20.0563C29.6764 20.0871 29.6471 20.1166 29.6183 20.1469C29.5409 20.2285 29.4618 20.3084 29.3811 20.3866C29.3331 20.433 29.2855 20.4795 29.2364 20.5246C29.2025 20.5559 29.1676 20.5862 29.1331 20.6169C29.0768 20.6669 29.0201 20.7164 28.9624 20.7647C28.9331 20.7892 28.9035 20.8135 28.8739 20.8377C28.8041 20.8945 28.7334 20.9501 28.6616 21.0046C28.642 21.0194 28.6228 21.0344 28.6031 21.0491C27.2975 22.0197 25.6814 22.595 23.9332 22.595C22.1848 22.595 20.5685 22.0196 19.2628 21.0487C19.2435 21.0343 19.2247 21.0195 19.2055 21.005C19.1334 20.9504 19.0623 20.8943 18.9923 20.8373C18.9629 20.8133 18.9335 20.7892 18.9044 20.7648C18.8465 20.7162 18.7897 20.6665 18.7331 20.6164C18.6988 20.5858 18.6641 20.5557 18.6303 20.5246C18.5811 20.4794 18.5333 20.4327 18.4852 20.3864C18.4041 20.3078 18.3248 20.2278 18.2472 20.1459C18.2188 20.116 18.1898 20.0868 18.1619 20.0565C18.1142 20.0046 18.0681 19.9512 18.0218 19.8982C17.9937 19.8659 17.9654 19.8339 17.9378 19.8011C17.8932 19.7483 17.8498 19.6946 17.8066 19.6408C17.7783 19.6053 17.7502 19.5697 17.7224 19.5337C17.6817 19.481 17.6414 19.4279 17.602 19.3742C17.5715 19.3326 17.5419 19.2902 17.5122 19.2479C17.4772 19.1983 17.442 19.149 17.4083 19.0986C17.3537 19.017 17.3006 18.9342 17.2491 18.8506C17.2302 18.8199 17.212 18.7889 17.1935 18.7579C17.1455 18.6776 17.0986 18.5969 17.0535 18.5148C17.0369 18.4846 17.0213 18.4539 17.0049 18.4235C16.9643 18.3472 16.9246 18.2702 16.8865 18.1925C16.8728 18.1649 16.8596 18.137 16.8464 18.1092C16.8443 18.105 16.8424 18.1007 16.8405 18.0965C16.8049 18.0214 16.7708 17.9456 16.7375 17.8692C16.7217 17.8328 16.7057 17.7966 16.6905 17.7601C16.6532 17.6706 16.6176 17.5804 16.5836 17.4894C16.5652 17.4403 16.5482 17.3907 16.5309 17.3413C16.513 17.2905 16.4958 17.2393 16.479 17.1881C16.4609 17.1326 16.4426 17.077 16.4256 17.0213C16.4003 16.9379 16.3764 16.854 16.3539 16.7695C16.3381 16.7103 16.3239 16.6505 16.3093 16.5909C16.298 16.544 16.2871 16.4971 16.2767 16.4499C16.2639 16.3921 16.2509 16.3344 16.2393 16.2763C16.2214 16.1858 16.2051 16.0949 16.1905 16.0034C16.1825 15.954 16.1756 15.9045 16.1685 15.8552C16.1581 15.7821 16.1487 15.7086 16.1404 15.6348C16.1362 15.5984 16.1315 15.5621 16.1278 15.5257C16.1171 15.4174 16.109 15.3083 16.1028 15.1988C16.101 15.1673 16.0996 15.1358 16.0982 15.1043C16.0929 14.9873 16.0892 14.8698 16.0892 14.7516C16.0892 14.6249 16.0928 14.4991 16.0988 14.3738C16.1005 14.3397 16.1033 14.3059 16.1053 14.272C16.1109 14.1779 16.1177 14.0841 16.1267 13.9908C16.1298 13.9583 16.1335 13.9259 16.137 13.8935C16.1481 13.7925 16.1605 13.692 16.1754 13.5922C16.1783 13.5728 16.1811 13.5533 16.1842 13.5338C16.6279 10.699 18.5951 8.36285 21.2193 7.39211ZM6.0505 10.4141C6.0505 6.08905 9.56915 2.57027 13.8943 2.57027C16.1513 2.57027 18.2833 3.55271 19.7574 5.20839C16.3354 6.69496 13.9636 9.90931 13.5764 13.6644C13.5737 13.6899 13.5718 13.7154 13.5693 13.741C13.5565 13.8748 13.5463 14.0091 13.5386 14.1441C13.5363 14.1852 13.5337 14.2262 13.5318 14.2675C13.5245 14.4283 13.5195 14.5895 13.5195 14.752C13.5195 14.9159 13.5242 15.0795 13.5319 15.243C13.535 15.3088 13.5404 15.3739 13.5446 15.4393C13.5509 15.5334 13.5574 15.6275 13.5661 15.7213C13.5738 15.8047 13.5833 15.8876 13.5931 15.9705C13.6016 16.0427 13.6106 16.1147 13.6206 16.1866C13.6337 16.2811 13.6478 16.3751 13.6634 16.4688C13.6728 16.5245 13.683 16.58 13.6932 16.6355C13.7125 16.7404 13.7321 16.845 13.7545 16.9487C13.7619 16.9828 13.7704 17.0168 13.7781 17.0508C13.8654 17.4367 13.9737 17.8145 14.1027 18.183C14.111 18.2067 14.1182 18.2308 14.1265 18.2544C14.049 18.2567 13.9714 18.2579 13.8941 18.2579C9.56915 18.2578 6.0505 14.7391 6.0505 10.4141ZM12.1938 26.7989C12.1655 26.8434 12.1385 26.8888 12.1108 26.9337C12.052 27.0285 11.9938 27.1236 11.9375 27.2196C11.906 27.2732 11.8757 27.3271 11.8451 27.3811C11.7945 27.4702 11.7445 27.5595 11.6959 27.6496C11.6654 27.7062 11.6353 27.7632 11.6055 27.8201C11.5587 27.9097 11.5131 27.9998 11.4684 28.0901C11.4402 28.1469 11.4122 28.2036 11.385 28.2606C11.3395 28.3558 11.2956 28.4518 11.2523 28.548C11.2288 28.6003 11.2047 28.6522 11.1819 28.7047C11.1318 28.8199 11.084 28.9359 11.0371 29.0524C11.0233 29.0864 11.0087 29.1201 10.9953 29.1541C10.9358 29.3054 10.8789 29.4577 10.8249 29.6107C10.8126 29.6458 10.8015 29.6813 10.7893 29.7164C10.7487 29.8343 10.7091 29.9527 10.6717 30.0715C10.6546 30.1262 10.6388 30.181 10.6224 30.2358C10.5922 30.3365 10.5625 30.4374 10.5346 30.5389C10.518 30.5993 10.5022 30.6599 10.4864 30.7205C10.461 30.8179 10.4366 30.9156 10.4134 31.0136C10.3987 31.0757 10.3843 31.1378 10.3705 31.2C10.3484 31.2993 10.3277 31.399 10.3078 31.4989C10.2959 31.5589 10.2835 31.6189 10.2723 31.6792C10.2522 31.7879 10.234 31.8971 10.2164 32.0065C10.2082 32.0579 10.1991 32.109 10.1914 32.1604C10.1675 32.3211 10.1458 32.4821 10.1275 32.6439C10.1273 32.6458 10.1271 32.6477 10.127 32.6497C10.1104 32.7968 10.0962 32.9442 10.0842 33.0921H2.57014V29.8698C2.57014 25.4674 5.10096 21.5152 9.06591 19.6366C10.5103 20.3959 12.1523 20.828 13.8942 20.828C14.3979 20.828 14.9032 20.7908 15.4047 20.717C15.4828 20.8284 15.5622 20.9387 15.6444 21.0469C15.6722 21.0832 15.701 21.1187 15.7293 21.1547C15.8105 21.2585 15.8929 21.3612 15.9779 21.4618C16.0127 21.5031 16.0485 21.5434 16.0839 21.5842C16.1636 21.6757 16.2446 21.766 16.3273 21.8545C16.3708 21.9012 16.415 21.9471 16.4592 21.993C16.5349 22.071 16.6116 22.1478 16.6896 22.2235C16.7189 22.2519 16.7465 22.282 16.7761 22.3101C16.6644 22.3776 16.5538 22.4467 16.4441 22.5173C16.4263 22.5287 16.4088 22.5408 16.3911 22.5523C16.2815 22.6235 16.173 22.6963 16.0656 22.7704C16.0284 22.7961 15.9914 22.8221 15.9544 22.848C15.8587 22.9155 15.764 22.9841 15.67 23.0539C15.6403 23.076 15.6103 23.0976 15.5808 23.12C15.4613 23.2103 15.3432 23.3023 15.2267 23.3964C15.2012 23.4169 15.1763 23.4381 15.1509 23.459C15.0581 23.5349 14.9662 23.6121 14.8755 23.6905C14.8402 23.7209 14.8053 23.7514 14.7703 23.7822C14.6795 23.8622 14.5898 23.9434 14.501 24.0258C14.4779 24.0473 14.4542 24.0683 14.4312 24.0901C14.3222 24.1926 14.2149 24.2971 14.1092 24.4034C14.0817 24.431 14.0548 24.4591 14.0276 24.4869C13.9466 24.5695 13.8666 24.653 13.7875 24.7377C13.7562 24.7714 13.7248 24.8051 13.6937 24.8391C13.6048 24.9363 13.5171 25.0347 13.4309 25.1346C13.4174 25.1502 13.4034 25.1654 13.3899 25.1812C13.2916 25.296 13.1955 25.4129 13.1006 25.531C13.0742 25.5639 13.0483 25.5973 13.0223 25.6306C12.9509 25.7212 12.8806 25.8127 12.8115 25.9051C12.7848 25.9408 12.7579 25.9763 12.7316 26.0123C12.6411 26.1356 12.5518 26.26 12.4651 26.3866C12.3719 26.5226 12.2817 26.6602 12.1938 26.7989ZM12.6092 37.43V35.6624V34.2077C12.6092 34.065 12.6119 33.9229 12.6172 33.7812C12.6189 33.7345 12.6226 33.6882 12.6249 33.6417C12.6295 33.5471 12.6339 33.4524 12.6409 33.3582C12.6451 33.3011 12.6515 33.2444 12.6567 33.1873C12.6641 33.1043 12.6708 33.0212 12.68 32.9387C12.6869 32.8783 12.6957 32.8183 12.7034 32.758C12.7135 32.6795 12.7228 32.6008 12.7344 32.5227C12.7438 32.4605 12.7551 32.3988 12.7654 32.3369C12.778 32.2616 12.7897 32.186 12.8038 32.1111C12.8157 32.0477 12.8296 31.985 12.8426 31.9219C12.8575 31.8492 12.8718 31.7762 12.8881 31.704C12.9025 31.6402 12.9189 31.5771 12.9344 31.5137C12.9517 31.443 12.9683 31.3719 12.9869 31.3016C13.0039 31.2377 13.0226 31.1745 13.0406 31.1112C13.0602 31.0422 13.0792 30.973 13.1 30.9045C13.1194 30.8408 13.1407 30.7776 13.1612 30.7142C13.183 30.647 13.2042 30.5797 13.2272 30.513C13.2491 30.4499 13.2726 30.3873 13.2955 30.3247C13.3196 30.2587 13.3433 30.1923 13.3686 30.1268C13.3927 30.0645 13.4184 30.0029 13.4435 29.941C13.4699 29.8763 13.4958 29.8113 13.5233 29.7472C13.5499 29.6854 13.5779 29.6242 13.6056 29.563C13.634 29.4999 13.6621 29.4366 13.6917 29.3741C13.7206 29.3131 13.7509 29.2528 13.7808 29.1923C13.8114 29.1306 13.8416 29.0688 13.8732 29.0078C13.9045 28.9476 13.937 28.8883 13.9692 28.8288C14.0019 28.7685 14.0341 28.7082 14.0678 28.6486C14.1012 28.5895 14.1359 28.5313 14.1702 28.4728C14.2049 28.4139 14.2394 28.3549 14.2752 28.2966C14.3108 28.2386 14.3476 28.1816 14.3842 28.1243C14.4209 28.0668 14.4574 28.0094 14.4952 27.9526C14.533 27.8958 14.5718 27.8398 14.6106 27.7837C14.6493 27.7278 14.6878 27.6719 14.7274 27.6167C14.7673 27.5612 14.8083 27.5064 14.8492 27.4515C14.8899 27.3972 14.9303 27.3428 14.9718 27.2892C15.0137 27.2351 15.0567 27.1818 15.0996 27.1283C15.1421 27.0754 15.1848 27.0226 15.2282 26.9704C15.272 26.918 15.3168 26.8662 15.3615 26.8145C15.4061 26.763 15.4508 26.7115 15.4964 26.6606C15.542 26.6097 15.5887 26.5596 15.6352 26.5095C15.6817 26.4595 15.7282 26.4097 15.7757 26.3606C15.8232 26.3113 15.8716 26.2627 15.9202 26.2143C15.9687 26.1658 16.0174 26.1176 16.0667 26.07C16.1159 26.0225 16.1659 25.9758 16.2162 25.9291C16.2665 25.8823 16.3172 25.8357 16.3685 25.7897C16.4196 25.7439 16.4713 25.6988 16.5233 25.654C16.5755 25.6089 16.628 25.564 16.6811 25.5198C16.7339 25.4759 16.7873 25.4326 16.841 25.3895C16.8951 25.3461 16.9496 25.303 17.0046 25.2605C17.0589 25.2186 17.1138 25.1772 17.1689 25.1361C17.225 25.0943 17.2814 25.0531 17.3384 25.0124C17.3942 24.9724 17.4505 24.9331 17.5072 24.894C17.5652 24.854 17.6236 24.8146 17.6824 24.7756C17.7396 24.7379 17.7973 24.7005 17.8553 24.6636C17.9153 24.6254 17.9757 24.5878 18.0365 24.5508C18.0951 24.515 18.1541 24.4797 18.2134 24.445C18.2751 24.4089 18.3373 24.3733 18.3999 24.3382C18.4599 24.3045 18.5203 24.2713 18.5811 24.2386C18.6447 24.2044 18.7088 24.1709 18.7733 24.1377C18.8345 24.1062 18.8959 24.0753 18.9579 24.0448C19.0066 24.0209 19.0558 23.9978 19.105 23.9745C20.5493 24.7337 22.1915 25.1658 23.9333 25.1658C25.6752 25.1658 27.3173 24.7337 28.7615 23.9745C28.8104 23.9977 28.8592 24.0207 28.9075 24.0443C28.9702 24.0751 29.0323 24.1065 29.0942 24.1382C29.158 24.171 29.2215 24.2042 29.2844 24.238C29.3459 24.271 29.4069 24.3047 29.4676 24.3387C29.5294 24.3734 29.5908 24.4085 29.6517 24.4442C29.712 24.4794 29.7717 24.5153 29.8311 24.5515C29.8911 24.5882 29.9506 24.6252 30.0097 24.6628C30.0686 24.7002 30.1269 24.738 30.1849 24.7764C30.2431 24.8148 30.3008 24.8539 30.3581 24.8934C30.4153 24.9328 30.4722 24.9725 30.5286 25.0129C30.5851 25.0532 30.6408 25.0941 30.6963 25.1355C30.7521 25.1768 30.8075 25.2186 30.8624 25.261C30.9169 25.3032 30.9708 25.3458 31.0246 25.3889C31.0785 25.4322 31.1322 25.4757 31.1854 25.52C31.2383 25.5639 31.2904 25.6085 31.3424 25.6533C31.3947 25.6984 31.4467 25.7438 31.4981 25.7899C31.549 25.8356 31.5992 25.8818 31.6492 25.9282C31.6999 25.9753 31.7504 26.0225 31.8001 26.0705C31.8491 26.1176 31.8972 26.1654 31.9452 26.2134C31.994 26.2622 32.0428 26.3112 32.0908 26.3608C32.1378 26.4096 32.1842 26.459 32.2303 26.5086C32.2774 26.5591 32.3243 26.6097 32.3703 26.661C32.4155 26.7113 32.4598 26.7624 32.5041 26.8135C32.5492 26.8656 32.5943 26.9177 32.6383 26.9707C32.6817 27.0225 32.7239 27.075 32.7662 27.1276C32.8094 27.1813 32.8526 27.2349 32.8947 27.2894C32.9361 27.3427 32.9763 27.3968 33.0167 27.4509C33.0578 27.5059 33.0989 27.561 33.139 27.6168C33.1785 27.6717 33.2169 27.7274 33.2553 27.7831C33.2942 27.8394 33.3333 27.8957 33.3712 27.9527C33.4087 28.0091 33.445 28.0662 33.4815 28.1232C33.5184 28.1809 33.5554 28.2385 33.5912 28.2969C33.6267 28.3546 33.6609 28.4132 33.6953 28.4715C33.73 28.5304 33.765 28.5891 33.7985 28.6486C33.832 28.708 33.8642 28.7681 33.8967 28.828C33.9291 28.8877 33.9617 28.9474 33.9929 29.0076C34.0246 29.0685 34.0546 29.1304 34.0852 29.1919C34.1151 29.2524 34.1456 29.3128 34.1745 29.374C34.2041 29.4365 34.2321 29.4996 34.2604 29.5625C34.2881 29.6241 34.3163 29.6853 34.3429 29.7473C34.3702 29.8109 34.3958 29.8753 34.422 29.9396C34.4475 30.002 34.4734 30.0642 34.4977 30.1272C34.5229 30.1923 34.5464 30.2583 34.5704 30.3241C34.5934 30.3869 34.617 30.4495 34.6388 30.5128C34.6619 30.5798 34.6833 30.6475 34.7051 30.715C34.7256 30.7781 34.7468 30.8409 34.766 30.9045C34.787 30.973 34.8059 31.0423 34.8255 31.1113C34.8435 31.1746 34.8623 31.2377 34.8793 31.3016C34.8979 31.3719 34.9145 31.4428 34.9318 31.5137C34.9474 31.577 34.9637 31.6402 34.9781 31.704C34.9944 31.7762 35.0085 31.8491 35.0236 31.9217C35.0365 31.9848 35.0504 32.0476 35.0624 32.1111C35.0764 32.1854 35.0879 32.2603 35.1005 32.3351C35.1109 32.3977 35.1225 32.4598 35.1319 32.5228C35.1435 32.6003 35.1527 32.6784 35.1627 32.7563C35.1706 32.8171 35.1796 32.8775 35.1864 32.9385C35.1956 33.021 35.2023 33.1042 35.2098 33.1872C35.2149 33.2443 35.2213 33.3009 35.2256 33.3581C35.2326 33.4523 35.2369 33.5471 35.2415 33.6419C35.2438 33.6882 35.2476 33.7345 35.2492 33.781C35.2545 33.9228 35.2572 34.0649 35.2572 34.2075V35.6621V37.43H12.6092ZM37.783 33.0921C37.7578 32.7791 37.7216 32.4679 37.6756 32.1588C37.6682 32.1098 37.6595 32.0612 37.6517 32.0124C37.6338 31.9005 37.6152 31.7888 37.5945 31.6775C37.5836 31.6189 37.5716 31.5606 37.5599 31.5021C37.5397 31.4004 37.5187 31.299 37.4962 31.198C37.4825 31.1371 37.4684 31.0762 37.454 31.0156C37.4305 30.9164 37.4058 30.8175 37.3801 30.719C37.3646 30.6592 37.349 30.5996 37.3326 30.54C37.3044 30.4374 37.2744 30.3354 37.2438 30.2335C37.2276 30.1797 37.2122 30.1259 37.1953 30.0723C37.1574 29.9516 37.1173 29.8316 37.0761 29.7119C37.0645 29.6784 37.054 29.6446 37.0422 29.6112C36.9879 29.4577 36.931 29.305 36.8712 29.1532C36.8584 29.1207 36.8444 29.0886 36.8313 29.0561C36.7839 28.9382 36.7353 28.8207 36.6845 28.704C36.662 28.6522 36.6383 28.601 36.6151 28.5495C36.5714 28.4524 36.5272 28.3556 36.4812 28.2595C36.4544 28.2032 36.4266 28.1473 36.399 28.0914C36.3539 28.0001 36.3077 27.9093 36.2606 27.8189C36.231 27.7624 36.2013 27.7061 36.171 27.65C36.1222 27.5596 36.0721 27.4699 36.0212 27.3805C35.9906 27.3268 35.9604 27.273 35.9292 27.2197C35.8726 27.1232 35.8141 27.0277 35.755 26.9324C35.7275 26.8879 35.7008 26.8431 35.6728 26.799C35.5848 26.6603 35.4945 26.5227 35.4012 26.3866C35.3144 26.2599 35.2251 26.1355 35.1346 26.0121C35.1084 25.9764 35.0816 25.9411 35.0552 25.9056C34.9857 25.8127 34.9151 25.7209 34.8435 25.63C34.8177 25.5972 34.7921 25.564 34.7659 25.5315C34.6709 25.413 34.5744 25.2958 34.4759 25.1808C34.463 25.1659 34.4498 25.1514 34.4369 25.1365C34.3501 25.0359 34.2616 24.9367 34.1721 24.8387C34.1412 24.8051 34.1103 24.7718 34.0792 24.7384C33.9997 24.6532 33.9192 24.569 33.8377 24.486C33.8108 24.4586 33.7845 24.431 33.7574 24.4039C33.6514 24.2975 33.5437 24.1926 33.4344 24.0898C33.412 24.0686 33.3888 24.048 33.3662 24.027C33.2769 23.9441 33.1867 23.8625 33.0954 23.782C33.0607 23.7514 33.0258 23.7211 32.9908 23.6908C32.8999 23.6123 32.808 23.535 32.7151 23.459C32.6897 23.4383 32.6649 23.4171 32.6395 23.3965C32.5231 23.3024 32.405 23.2104 32.2856 23.1202C32.2558 23.0977 32.2255 23.0759 32.1955 23.0536C32.102 22.9843 32.0078 22.9159 31.9124 22.8488C31.875 22.8225 31.8376 22.7962 31.8001 22.7703C31.6937 22.6969 31.5864 22.6249 31.4779 22.5545C31.4589 22.5422 31.4403 22.5293 31.4213 22.5171C31.3118 22.4468 31.2015 22.3778 31.09 22.3105C31.1187 22.2831 31.1457 22.2539 31.1741 22.2262C31.2538 22.1491 31.3321 22.0707 31.4092 21.991C31.4522 21.9466 31.495 21.902 31.5372 21.8567C31.6213 21.7668 31.7033 21.675 31.7843 21.5821C31.8187 21.5427 31.8533 21.5035 31.8871 21.4634C31.9733 21.3613 32.0571 21.2571 32.1395 21.1516C32.1665 21.1172 32.1941 21.0832 32.2206 21.0484C32.3032 20.9398 32.383 20.8291 32.4615 20.7173C32.963 20.7909 33.4682 20.8282 33.972 20.8282C35.7139 20.8282 37.356 20.3961 38.8003 19.6368C42.7653 21.5153 45.296 25.4675 45.296 29.8699V33.0921H37.783Z" fill="white"/>
</g>
</g>
</g>
</g>
</svg>
