<svg width="40" height="40" viewBox="0 0 40 40" fill="none" xmlns="http://www.w3.org/2000/svg">
<g id="Group 5">
<g id="Group 2402">
<g id="Clip path group">
<mask id="mask0_38_86" style="mask-type:luminance" maskUnits="userSpaceOnUse" x="0" y="0" width="40" height="40">
<g id="clip-pricetag2">
<path id="Vector" d="M40 0H0V40H40V0Z" fill="white"/>
</g>
</mask>
<g mask="url(#mask0_38_86)">
<g id="pricetag2">
<g id="Group 2401">
<g id="Group 2397">
<g id="Group 2396">
<g id="Group 2395">
<path id="Path 3856" d="M23.96 16.7737L24.615 16.1187C24.9483 15.7853 24.9846 15.4904 24.7237 15.2337C24.4629 14.977 24.1658 15.0187 23.8325 15.3587L23.19 16.0012C22.4573 15.31 21.5012 14.9042 20.495 14.8574C19.7255 14.8995 18.9887 15.1823 18.3887 15.6659C17.7886 16.1495 17.3558 16.8094 17.1512 17.5524C17.038 18.1087 17.0725 18.6849 17.2512 19.2237C17.4763 19.8694 17.7639 20.4915 18.11 21.0812L15.29 23.8999C15.1109 23.5999 15.0023 23.2631 14.9725 22.9149C14.9511 22.6271 14.9903 22.338 15.0875 22.0662C15.2276 21.7097 15.3866 21.3608 15.5637 21.0212C15.6663 20.8322 15.7003 20.6136 15.66 20.4024C15.6114 20.1767 15.4949 19.9714 15.3262 19.8137C15.2235 19.7054 15.0993 19.6199 14.9615 19.5626C14.8237 19.5054 14.6754 19.4776 14.5262 19.4812C14.3878 19.4779 14.25 19.5024 14.1212 19.5533C13.9924 19.6042 13.8751 19.6804 13.7762 19.7774C13.5027 20.0569 13.2873 20.3879 13.1425 20.7512C12.9762 21.1692 12.8868 21.6139 12.8787 22.0637C12.8667 22.5811 12.9515 23.0962 13.1287 23.5824C13.3403 24.1538 13.6467 24.6854 14.035 25.1549L12.3987 26.7924C12.2455 26.9252 12.1328 27.0985 12.0737 27.2925C12.0623 27.3744 12.0722 27.4579 12.1024 27.535C12.1326 27.6121 12.1822 27.6801 12.2462 27.7324C12.2997 27.8025 12.3739 27.854 12.4582 27.8795C12.5426 27.9051 12.6329 27.9035 12.7162 27.8749C12.9398 27.7622 13.1403 27.6087 13.3075 27.4224L14.8175 25.9137C15.3787 26.4079 16.0471 26.7649 16.77 26.9562C17.4075 27.1218 18.0779 27.1114 18.71 26.9262C19.3221 26.7431 19.8786 26.4096 20.3287 25.9562C20.6811 25.6106 20.9577 25.1956 21.1412 24.7374C21.3136 24.3006 21.3879 23.8312 21.3587 23.3624C21.3394 22.9173 21.2355 22.4799 21.0525 22.0737C20.8692 21.6637 20.5954 21.1391 20.2312 20.4999L22.7537 17.9787C22.923 18.281 23.0083 18.6231 23.0008 18.9695C22.9933 19.3159 22.8934 19.654 22.7112 19.9487C22.5553 20.1585 22.4819 20.4183 22.5049 20.6787C22.528 20.9391 22.6459 21.182 22.8362 21.3612C22.9343 21.4627 23.0521 21.543 23.1824 21.5972C23.3126 21.6513 23.4527 21.6782 23.5937 21.6762C23.7329 21.6802 23.8713 21.6554 24.0004 21.6034C24.1295 21.5513 24.2464 21.4731 24.3437 21.3737C24.546 21.1586 24.7003 20.9029 24.7962 20.6237C24.92 20.2838 24.9925 19.9274 25.0112 19.5662C25.0542 19.0848 24.9848 18.6 24.8087 18.1499C24.5968 17.651 24.3107 17.187 23.96 16.7737ZM18.6312 24.6612C18.315 24.9833 17.8874 25.172 17.4362 25.1887C16.9206 25.1985 16.416 25.0386 16 24.7337L18.655 22.0787C18.9078 22.5225 19.067 23.0134 19.1225 23.5212C19.1281 23.736 19.0865 23.9495 19.0005 24.1465C18.9145 24.3435 18.7863 24.5192 18.625 24.6612H18.6312ZM19.6862 19.5074C19.4845 19.1156 19.3598 18.6887 19.3187 18.2499C19.3505 17.8667 19.5198 17.5078 19.7956 17.2397C20.0713 16.9715 20.4347 16.8122 20.8187 16.7912C21.2399 16.8372 21.6466 16.9713 22.0125 17.1849L19.6862 19.5074Z" fill="white"/>
</g>
</g>
</g>
<g id="Group 2400">
<g id="Group 2399">
<g id="Group 2398">
<path id="Path 3857" d="M39.395 1.26748C39.3941 1.18574 39.3761 1.10509 39.3422 1.0307C39.3083 0.956309 39.2592 0.889781 39.1982 0.835426C39.1371 0.781071 39.0654 0.740084 38.9876 0.715035C38.9098 0.689985 38.8276 0.681444 38.7463 0.689972C38.5825 0.698375 38.4283 0.770068 38.3164 0.889938C38.2045 1.00981 38.1435 1.16849 38.1463 1.33248C38.1463 1.41123 38.13 3.27748 34.0038 3.80498C33.289 3.8966 32.5975 4.12084 31.965 4.46622L29.9488 2.44874C29.7936 2.29353 29.6004 2.18189 29.3884 2.12506C29.1764 2.06823 28.9532 2.06821 28.7413 2.12498L18.7213 4.81122C18.4039 4.82129 18.1022 4.95178 17.8775 5.17621L0.970017 22.0837C0.735678 22.3181 0.604034 22.636 0.604034 22.9675C0.604034 23.2989 0.735678 23.6168 0.970017 23.8512L16.07 38.95C16.3044 39.1843 16.6223 39.316 16.9538 39.316C17.2852 39.316 17.6031 39.1843 17.8375 38.95L34.75 22.0437C34.9739 21.8197 35.1043 21.519 35.115 21.2025L37.8 11.18C37.8568 10.968 37.8568 10.7448 37.7999 10.5328C37.7431 10.3209 37.6315 10.1276 37.4763 9.97247L32.905 5.40124C33.3066 5.22265 33.7318 5.10267 34.1675 5.04498C39.5263 4.35998 39.4025 1.39248 39.395 1.26748ZM32.6938 20.5587L16.9538 36.2987L3.62501 22.9675L19.365 7.22623L28.695 4.72623L30.06 6.09246C29.4309 6.90902 28.939 7.82266 28.6038 8.79746C27.9547 8.79041 27.3256 9.02162 26.8355 9.4473C26.3454 9.87298 26.0285 10.4636 25.9447 11.1073C25.8608 11.7509 26.0159 12.403 26.3806 12.94C26.7453 13.477 27.2942 13.8617 27.9235 14.0211C28.5527 14.1805 29.2186 14.1037 29.795 13.8051C30.3713 13.5065 30.8182 13.007 31.051 12.401C31.2838 11.7951 31.2863 11.1248 31.0581 10.5171C30.8298 9.90946 30.3867 9.40657 29.8125 9.10371C30.0825 8.34261 30.4651 7.62633 30.9475 6.97873L35.1975 11.2287L32.6938 20.5587ZM29.5125 10.4087C29.6872 10.5836 29.8061 10.8063 29.8542 11.0487C29.9023 11.2912 29.8775 11.5425 29.7829 11.7708C29.6882 11.9991 29.528 12.1943 29.3225 12.3316C29.1169 12.4688 28.8753 12.5421 28.6281 12.5421C28.381 12.5421 28.1394 12.4688 27.9338 12.3316C27.7283 12.1943 27.5681 11.9991 27.4734 11.7708C27.3788 11.5425 27.3539 11.2912 27.4021 11.0487C27.4502 10.8063 27.5691 10.5836 27.7438 10.4087C27.8751 10.2805 28.0336 10.1836 28.2075 10.125C28.1192 10.49 28.052 10.8597 28.0063 11.2325C27.9906 11.397 28.0407 11.561 28.1456 11.6887C28.2506 11.8164 28.4018 11.8973 28.5663 11.9137C28.5871 11.915 28.608 11.915 28.6288 11.9137C28.7844 11.9145 28.9348 11.8571 29.0504 11.7528C29.166 11.6486 29.2385 11.5049 29.2538 11.35C29.2962 11.0134 29.3575 10.6796 29.4375 10.35C29.4575 10.375 29.4888 10.3862 29.5125 10.4087Z" fill="white"/>
</g>
</g>
</g>
</g>
</g>
</g>
</g>
</g>
</g>
</svg>
