<svg width="25" height="24" viewBox="0 0 25 24" fill="none" xmlns="http://www.w3.org/2000/svg">
<g id="Group 19">
<ellipse id="Ellipse 3" cx="12.2651" cy="12.1576" rx="11.8421" ry="11.8421" fill="#FFC500"/>
<g id="Group 18">
<path id="Vector" fill-rule="evenodd" clip-rule="evenodd" d="M10.4821 8.3344C10.8185 8.06694 10.8744 7.57739 10.607 7.24097C10.3395 6.90455 9.84996 6.84863 9.51353 7.1161C6.67858 9.3699 6.10683 12.2998 6.10683 15.5072C6.10683 16.7966 7.15206 17.8418 8.44142 17.8418C9.73077 17.8418 10.776 16.7966 10.776 15.5072C10.776 14.2179 9.73077 13.1726 8.44142 13.1726C8.21755 13.1726 8.00105 13.2041 7.79611 13.263C8.06493 11.295 8.79735 9.67377 10.4821 8.3344ZM18.558 15.5072C18.558 16.7966 17.5128 17.8418 16.2234 17.8418C14.934 17.8418 13.8888 16.7966 13.8888 15.5072C13.8888 12.2998 14.4605 9.3699 17.2955 7.1161C17.6319 6.84863 18.1215 6.90455 18.3889 7.24097C18.6564 7.57739 18.6005 8.06694 18.264 8.3344C16.5793 9.67377 15.8469 11.295 15.5781 13.263C15.783 13.2041 15.9995 13.1726 16.2234 13.1726C17.5128 13.1726 18.558 14.2179 18.558 15.5072Z" fill="white"/>
</g>
</g>
</svg>
